<svg width="18" height="18" viewBox="0 0 18 18" fill="none" xmlns="http://www.w3.org/2000/svg">
<g clip-path="url(#clip0_11406_96329)">
<g opacity="0.5">
<path d="M3.37891 2.80859C3.37847 2.80859 3.37798 2.80859 3.37755 2.80859C3.22433 2.80859 3.08022 2.86832 2.9714 2.97687C2.86138 3.08661 2.80078 3.23274 2.80078 3.3883V12.081C2.80078 12.3997 3.06113 12.6597 3.3812 12.6605C4.73055 12.6637 6.99125 12.945 8.55082 14.577V5.47991C8.55082 5.37186 8.52322 5.27035 8.47113 5.18635C7.1911 3.12496 4.73131 2.81176 3.37891 2.80859Z" fill="#70757A"/>
<path d="M15.2002 12.081V3.3883C15.2002 3.23274 15.1396 3.08661 15.0296 2.97687C14.9207 2.86832 14.7765 2.80859 14.6235 2.80859C14.623 2.80859 14.6225 2.80859 14.622 2.80859C13.2697 2.81181 10.8099 3.12501 9.52983 5.1864C9.47774 5.2704 9.4502 5.37191 9.4502 5.47997V14.577C11.0098 12.945 13.2705 12.6637 14.6198 12.6605C14.9398 12.6597 15.2002 12.3997 15.2002 12.081Z" fill="#70757A"/>
<path d="M16.5207 4.8125H16.1004V12.0802C16.1004 12.8941 15.4373 13.5577 14.6221 13.5598C13.4776 13.5625 11.5904 13.7863 10.2539 15.0513C12.5654 14.4853 15.0022 14.8532 16.3909 15.1697C16.5643 15.2092 16.7435 15.1684 16.8825 15.0576C17.0209 14.9472 17.1003 14.7821 17.1003 14.6049V5.3921C17.1004 5.07252 16.8403 4.8125 16.5207 4.8125Z" fill="#70757A"/>
<path d="M1.90032 12.0802V4.8125H1.47999C1.16046 4.8125 0.900391 5.07252 0.900391 5.3921V14.6047C0.900391 14.782 0.979809 14.947 1.11825 15.0575C1.25706 15.1682 1.43608 15.2091 1.60976 15.1695C2.99849 14.853 5.43531 14.4851 7.74674 15.0511C6.41026 13.7862 4.52309 13.5624 3.37856 13.5597C2.56349 13.5577 1.90032 12.8941 1.90032 12.0802Z" fill="#70757A"/>
</g>
</g>
<defs>
<clipPath id="clip0_11406_96329">
<rect width="16.2" height="16.2" fill="white" transform="translate(0.900391 0.898438)"/>
</clipPath>
</defs>
</svg>
