<svg width="39" height="39" viewBox="0 0 39 39" fill="none" xmlns="http://www.w3.org/2000/svg">
<path d="M35.1889 2.55244V36.4474C35.1889 37.8566 34.0456 38.9998 32.6355 38.9998H7.55244C6.14235 38.9998 5 37.8566 5 36.4474V2.55244C5 1.14243 6.14243 0 7.55244 0H32.6355C34.0456 0 35.1889 1.1425 35.1889 2.55244Z" fill="#424C59"/>
<path d="M35.1887 2.55244V6.56045H5V2.55244C5 1.1425 6.14235 0 7.55244 0H32.6354C34.0455 0 35.1887 1.1425 35.1887 2.55244Z" fill="#EAEAEA"/>
<path d="M9.06465 4.53164C9.79071 4.53164 10.3793 3.94305 10.3793 3.21699C10.3793 2.49093 9.79071 1.90234 9.06465 1.90234C8.33859 1.90234 7.75 2.49093 7.75 3.21699C7.75 3.94305 8.33859 4.53164 9.06465 4.53164Z" fill="#F9572B"/>
<path d="M13.4924 4.53164C14.2184 4.53164 14.807 3.94305 14.807 3.21699C14.807 2.49093 14.2184 1.90234 13.4924 1.90234C12.7663 1.90234 12.1777 2.49093 12.1777 3.21699C12.1777 3.94305 12.7663 4.53164 13.4924 4.53164Z" fill="#FCC63D"/>
<path d="M17.9182 4.53164C18.6442 4.53164 19.2328 3.94305 19.2328 3.21699C19.2328 2.49093 18.6442 1.90234 17.9182 1.90234C17.1921 1.90234 16.6035 2.49093 16.6035 3.21699C16.6035 3.94305 17.1921 4.53164 17.9182 4.53164Z" fill="#45B8C4"/>
<path d="M24.576 11.847H11.3161C10.9861 11.847 10.7188 11.5796 10.7188 11.2497C10.7188 10.9198 10.9861 10.6523 11.3161 10.6523H24.5759C24.9059 10.6523 25.1733 10.9198 25.1733 11.2497C25.1732 11.5796 24.9058 11.847 24.576 11.847Z" fill="#FCC63D"/>
<path d="M8.64921 11.846C8.10191 11.846 7.84301 11.1351 8.26995 10.7875C8.69217 10.4436 9.34542 10.8241 9.23467 11.3658C9.1783 11.6415 8.93112 11.846 8.64921 11.846Z" fill="white"/>
<path d="M24.576 18.5228H11.3161C10.9861 18.5228 10.7188 18.2554 10.7188 17.9255C10.7188 17.5956 10.9861 17.3281 11.3161 17.3281H24.5759C24.9059 17.3281 25.1733 17.5956 25.1733 17.9255C25.1732 18.2554 24.9058 18.5228 24.576 18.5228Z" fill="#FCC63D"/>
<path d="M8.64978 18.5226C8.39986 18.5226 8.17196 18.3611 8.08725 18.1262C8.00392 17.895 8.07491 17.6279 8.26298 17.4693C8.66319 17.1316 9.29663 17.4603 9.24415 17.9837C9.21399 18.2849 8.95249 18.5226 8.64978 18.5226Z" fill="white"/>
<path d="M29.9531 21.8607H26.2104C25.8804 21.8607 25.613 21.5933 25.613 21.2634C25.613 20.9335 25.8804 20.666 26.2104 20.666H29.9531C30.2831 20.666 30.5504 20.9335 30.5504 21.2634C30.5503 21.5933 30.2829 21.8607 29.9531 21.8607Z" fill="white"/>
<path d="M24.2178 21.8587H17.2497C16.9197 21.8587 16.6523 21.5913 16.6523 21.2614C16.6523 20.9315 16.9197 20.6641 17.2497 20.6641H24.2178C24.5478 20.6641 24.8152 20.9315 24.8152 21.2614C24.8152 21.5913 24.5477 21.8587 24.2178 21.8587Z" fill="#F9572B"/>
<path d="M15.2588 21.8587H11.3167C10.9867 21.8587 10.7194 21.5913 10.7194 21.2614C10.7194 20.9315 10.9867 20.6641 11.3167 20.6641H15.2588C15.5888 20.6641 15.8562 20.9315 15.8562 21.2614C15.8562 21.5913 15.5888 21.8587 15.2588 21.8587Z" fill="white"/>
<path d="M8.64882 21.8611C8.11021 21.8611 7.84947 21.1726 8.25326 20.8163C8.65552 20.4613 9.30984 20.8031 9.24144 21.3378C9.20366 21.6322 8.94665 21.8611 8.64882 21.8611Z" fill="white"/>
<path d="M20.9922 25.1947H11.3161C10.9861 25.1947 10.7188 24.9272 10.7188 24.5973C10.7188 24.2674 10.9861 24 11.3161 24H20.9921C21.3221 24 21.5895 24.2674 21.5895 24.5973C21.5895 24.9272 21.3221 25.1947 20.9922 25.1947Z" fill="#FCC63D"/>
<path d="M8.6493 25.1951C8.41019 25.1951 8.18899 25.0469 8.09736 24.8263C7.99384 24.577 8.07519 24.2802 8.29213 24.1191C8.72661 23.7964 9.35594 24.2 9.23064 24.7326C9.16795 24.9998 8.92443 25.1951 8.6493 25.1951Z" fill="white"/>
<path d="M26.9659 28.5306H25.1344C24.8045 28.5306 24.5371 28.2632 24.5371 27.9333C24.5371 27.6034 24.8045 27.3359 25.1344 27.3359H26.9659C27.2959 27.3359 27.5633 27.6034 27.5633 27.9333C27.5633 28.2632 27.2958 28.5306 26.9659 28.5306Z" fill="#F9572B"/>
<path d="M23.1431 28.5306H17.8473C17.5174 28.5306 17.25 28.2632 17.25 27.9333C17.25 27.6034 17.5174 27.3359 17.8473 27.3359H23.1431C23.4731 27.3359 23.7405 27.6034 23.7405 27.9333C23.7405 28.2632 23.473 28.5306 23.1431 28.5306Z" fill="#FCC63D"/>
<path d="M15.856 28.5306H11.3166C10.9866 28.5306 10.7192 28.2632 10.7192 27.9333C10.7192 27.6034 10.9866 27.3359 11.3166 27.3359H15.856C16.1859 27.3359 16.4533 27.6034 16.4533 27.9333C16.4532 28.2632 16.1859 28.5306 15.856 28.5306Z" fill="white"/>
<path d="M8.64904 28.5329C8.11127 28.5329 7.84977 27.8466 8.25196 27.4894C8.65422 27.1321 9.30991 27.4752 9.24158 28.0099C9.20396 28.3046 8.9468 28.5329 8.64904 28.5329Z" fill="white"/>
<path d="M29.7135 31.8675H21.1923C20.8623 31.8675 20.595 31.6001 20.595 31.2702C20.595 30.9403 20.8623 30.6729 21.1923 30.6729H29.7135C30.0435 30.6729 30.3108 30.9403 30.3108 31.2702C30.3108 31.6001 30.0434 31.8675 29.7135 31.8675Z" fill="white"/>
<path d="M19.2003 31.8705H11.3161C10.9861 31.8705 10.7188 31.603 10.7188 31.2731C10.7188 30.9432 10.9861 30.6758 11.3161 30.6758H19.2003C19.5302 30.6758 19.7976 30.9432 19.7976 31.2731C19.7976 31.603 19.5302 31.8705 19.2003 31.8705Z" fill="#F9572B"/>
<path d="M8.65061 31.8705C8.11702 31.8705 7.85309 31.1898 8.24903 30.8303C8.64314 30.4724 9.29914 30.7975 9.2449 31.3313C9.21436 31.632 8.95347 31.8705 8.65061 31.8705Z" fill="white"/>
<path d="M15.2582 35.2064H11.3161C10.9861 35.2064 10.7188 34.939 10.7188 34.6091C10.7188 34.2792 10.9861 34.0117 11.3161 34.0117H15.2582C15.5882 34.0117 15.8556 34.2792 15.8556 34.6091C15.8556 34.939 15.5882 35.2064 15.2582 35.2064Z" fill="#F9572B"/>
<path d="M8.6494 35.2066C8.39979 35.2066 8.17089 35.0451 8.08688 34.8102C7.99814 34.5625 8.08672 34.2752 8.30221 34.1229C8.73091 33.8199 9.34188 34.2026 9.23486 34.7255C9.17834 35.0012 8.93139 35.2066 8.6494 35.2066Z" fill="white"/>
<path d="M14.3025 15.183H11.3161C10.9861 15.183 10.7188 14.9155 10.7188 14.5856C10.7188 14.2557 10.9861 13.9883 11.3161 13.9883H14.3025C14.6325 13.9883 14.8998 14.2557 14.8998 14.5856C14.8998 14.9155 14.6325 15.183 14.3025 15.183Z" fill="#F9572B"/>
<path d="M22.1872 15.1869H16.4533C16.1233 15.1869 15.856 14.9194 15.856 14.5895C15.856 14.2596 16.1233 13.9922 16.4533 13.9922H22.1872C22.5172 13.9922 22.7845 14.2596 22.7845 14.5895C22.7845 14.9194 22.517 15.1869 22.1872 15.1869Z" fill="white"/>
<path d="M8.64935 15.1874C8.40423 15.1874 8.18044 15.032 8.09216 14.8042C7.99816 14.5618 8.07654 14.2787 8.2816 14.119C8.7061 13.7882 9.34412 14.1728 9.23474 14.7063C9.17829 14.9818 8.93134 15.1874 8.64935 15.1874Z" fill="white"/>
</svg>
