<svg width="16" height="16" viewBox="0 0 16 16" fill="none" xmlns="http://www.w3.org/2000/svg">
    <path fill-rule="evenodd" clip-rule="evenodd" d="M3.55556 2C3.143 2 2.74733 2.16389 2.45561 2.45561C2.16389 2.74733 2 3.143 2 3.55556V12.4444C2 12.857 2.16389 13.2527 2.45561 13.5444C2.74734 13.8361 3.143 14 3.55556 14H12.4444C12.857 14 13.2527 13.8361 13.5444 13.5444C13.8361 13.2527 14 12.857 14 12.4444V3.55556C14 3.35128 13.9598 3.149 13.8816 2.96027C13.8034 2.77154 13.6888 2.60006 13.5444 2.45561C13.3999 2.31116 13.2285 2.19658 13.0397 2.11841C12.851 2.04024 12.6487 2 12.4444 2H3.55556ZM3.30863 3.30863C3.37412 3.24314 3.46294 3.20635 3.55556 3.20635H12.4444C12.5371 3.20635 12.6259 3.24314 12.6914 3.30863C12.7569 3.37412 12.7936 3.46294 12.7936 3.55556V7.34158L11.7877 8.11288L9.95503 9.51803C9.84619 9.60149 9.71424 9.64935 9.5772 9.65508C9.44018 9.6608 9.30467 9.6241 9.18925 9.55003L8.34372 9.00705L7.84963 8.68975C7.56477 8.50679 7.23565 8.40446 6.89727 8.39364C6.55889 8.38283 6.22383 8.46397 5.92786 8.62836L3.20635 10.141V3.55556C3.20635 3.46294 3.24314 3.37412 3.30863 3.30863ZM4.44219 4.33856C4.44168 4.33907 4.44117 4.33958 4.44066 4.34009C4.0894 4.69135 3.89206 5.16775 3.89206 5.66451C3.89206 6.16126 4.0894 6.63767 4.44066 6.98893C4.79192 7.34019 5.26832 7.53753 5.76508 7.53753C6.10996 7.53753 6.44504 7.44241 6.73523 7.2667C6.86302 7.18932 6.98211 7.09632 7.0895 6.98893C7.44076 6.63767 7.6381 6.16126 7.6381 5.66451C7.6381 5.16775 7.44076 4.69135 7.0895 4.34009C6.73824 3.98883 6.26183 3.79149 5.76508 3.79149C5.26905 3.79149 4.7933 3.98825 4.44219 4.33856ZM5.29367 5.1931C5.4187 5.06808 5.58827 4.99784 5.76508 4.99784C5.94189 4.99784 6.11146 5.06808 6.23648 5.1931C6.36151 5.31813 6.43175 5.4877 6.43175 5.66451C6.43175 5.84132 6.36151 6.01089 6.23648 6.13591C6.1626 6.2098 6.07315 6.26456 5.97584 6.29698C5.9085 6.31943 5.8374 6.33118 5.76508 6.33118C5.58827 6.33118 5.4187 6.26094 5.29367 6.13591C5.16865 6.01089 5.09841 5.84132 5.09841 5.66451C5.09841 5.5374 5.13471 5.41403 5.20157 5.30827C5.22772 5.26691 5.25853 5.22825 5.29367 5.1931ZM10.6894 10.4756L12.7936 8.86174V12.4444C12.7936 12.5371 12.7569 12.6259 12.6914 12.6914C12.6259 12.7569 12.5371 12.7936 12.4444 12.7936H3.55556C3.50969 12.7936 3.46429 12.7846 3.42192 12.7671C3.37955 12.7495 3.34106 12.7238 3.30863 12.6914C3.24314 12.6259 3.20635 12.5371 3.20635 12.4444V11.5211L6.51331 9.6828C6.61874 9.62425 6.73808 9.5954 6.85861 9.59931C6.97914 9.60323 7.09659 9.63991 7.19799 9.70517L8.53771 10.5655C8.86204 10.7737 9.2427 10.8768 9.62778 10.8607C10.0129 10.8446 10.3836 10.7101 10.6894 10.4756Z" fill="#4D5156"/>
</svg>