<svg width="39" height="39" viewBox="0 0 39 39" fill="none" xmlns="http://www.w3.org/2000/svg">
<path d="M24.9575 1.9502H6.76696C6.26052 1.9502 5.84998 2.36074 5.84998 3.15738V36.4234C5.84998 36.6396 6.26052 37.0502 6.76696 37.0502H31.8848C32.3912 37.0502 32.8018 36.6396 32.8018 36.4234V10.0846C32.8018 9.64838 32.7435 9.50798 32.6407 9.40456L25.3474 2.11128C25.244 2.00849 25.1036 1.9502 24.9575 1.9502Z" fill="#E9E9E0"/>
<path d="M25.2804 2.0459V9.47268H32.7072L25.2804 2.0459Z" fill="#D9D7CA"/>
<path d="M31.8848 37.0499H6.76696C6.26052 37.0499 5.84998 36.6393 5.84998 36.1329V26.3945H32.8018V36.1329C32.8018 36.6393 32.3912 37.0499 31.8848 37.0499Z" fill="#9777A8"/>
<path d="M12.4439 28.7272V33.6462C12.4439 33.9433 12.3893 34.1934 12.2809 34.3958C12.1725 34.5983 12.027 34.7613 11.844 34.8841C11.661 35.007 11.451 35.0928 11.2141 35.1411C10.9772 35.1894 10.7327 35.2138 10.4814 35.2138C10.356 35.2138 10.2081 35.2006 10.0401 35.1749C9.87216 35.1492 9.69729 35.1098 9.5174 35.0552C9.33751 35.0007 9.16452 34.9393 8.99905 34.8709C8.83358 34.8026 8.6938 34.7255 8.5791 34.6397L9.01597 33.9458C9.07301 33.9853 9.15449 34.0273 9.26042 34.0699C9.36635 34.1125 9.4823 34.1526 9.60766 34.1896C9.73301 34.2266 9.86464 34.2592 10.0019 34.288C10.1392 34.3169 10.2677 34.3307 10.3874 34.3307C10.6901 34.3307 10.9314 34.2717 11.1113 34.1552C11.2912 34.0386 11.3865 33.8393 11.3984 33.5597V28.7266H12.4439V28.7272Z" fill="white"/>
<path d="M17.5607 33.441C17.5607 33.6692 17.5137 33.891 17.419 34.1054C17.3244 34.3198 17.1921 34.5084 17.0204 34.6708C16.8486 34.8331 16.638 34.9635 16.3861 35.0606C16.1341 35.1578 15.8495 35.206 15.5293 35.206C15.392 35.206 15.251 35.1985 15.1049 35.1847C14.9589 35.1709 14.8122 35.1459 14.6637 35.112C14.5151 35.0775 14.3735 35.0305 14.2393 34.9704C14.1052 34.9102 13.9899 34.8375 13.8921 34.7516L14.072 34.0145C14.1522 34.0603 14.2531 34.1048 14.376 34.1474C14.4988 34.19 14.6254 34.2301 14.7571 34.2671C14.8887 34.3041 15.0197 34.3342 15.1513 34.3574C15.2829 34.3806 15.4052 34.3918 15.5199 34.3918C15.8683 34.3918 16.1354 34.3104 16.3209 34.1474C16.5064 33.9844 16.5992 33.7431 16.5992 33.4235C16.5992 33.2292 16.534 33.0637 16.4024 32.9264C16.2707 32.7892 16.1065 32.665 15.9097 32.5535C15.7129 32.4419 15.4998 32.331 15.271 32.2194C15.0422 32.1078 14.8285 31.9762 14.6286 31.8252C14.4286 31.6741 14.2631 31.4955 14.1315 31.2899C13.9999 31.0843 13.9347 30.8273 13.9347 30.5189C13.9347 30.2394 13.9861 29.9906 14.0889 29.7737C14.1917 29.5568 14.3302 29.3719 14.5045 29.2209C14.6787 29.0698 14.8818 28.9539 15.1131 28.8736C15.3444 28.7934 15.5888 28.7539 15.8458 28.7539C16.1084 28.7539 16.3742 28.7784 16.6424 28.8266C16.9107 28.8749 17.1276 28.9539 17.2937 29.0623C17.2592 29.1362 17.2197 29.2177 17.1739 29.3067C17.1282 29.3957 17.0849 29.4778 17.0454 29.5549C17.006 29.632 16.9715 29.6966 16.9427 29.748C16.9138 29.7994 16.8969 29.8282 16.8913 29.8339C16.8568 29.8169 16.8186 29.7944 16.7753 29.7655C16.7321 29.7367 16.6713 29.7085 16.591 29.6797C16.5108 29.6508 16.4055 29.6314 16.2739 29.6195C16.1423 29.6076 15.9736 29.6107 15.7681 29.6283C15.6534 29.6402 15.5456 29.6721 15.4421 29.7267C15.3387 29.7812 15.2478 29.8476 15.1676 29.9279C15.0874 30.0081 15.0247 30.0977 14.9789 30.198C14.9332 30.2983 14.9106 30.3942 14.9106 30.4851C14.9106 30.7132 14.9758 30.8975 15.1074 31.0379C15.2391 31.1783 15.402 31.3005 15.5957 31.4065C15.7894 31.5124 16.0012 31.6152 16.23 31.7148C16.4588 31.8145 16.6713 31.9367 16.8687 32.079C17.0661 32.2213 17.2297 32.4005 17.3613 32.6143C17.493 32.828 17.5607 33.1038 17.5607 33.441Z" fill="white"/>
<path d="M23.7637 31.9844C23.7637 32.5159 23.6966 32.9841 23.5625 33.3896C23.4284 33.7951 23.2422 34.1324 23.0053 34.4006C22.7683 34.6689 22.4913 34.872 22.1742 35.0092C21.857 35.1465 21.5098 35.2148 21.1331 35.2148C20.7564 35.2148 20.4091 35.1465 20.092 35.0092C19.7748 34.872 19.4978 34.6695 19.2609 34.4006C19.0239 34.1317 18.8378 33.7951 18.7036 33.3896C18.5695 32.9841 18.5024 32.5153 18.5024 31.9844C18.5024 31.4535 18.5695 30.9859 18.7036 30.5835C18.8378 30.1811 19.0239 29.8451 19.2609 29.5769C19.4978 29.3086 19.7748 29.1043 20.092 28.9639C20.4091 28.8235 20.7564 28.7539 21.1331 28.7539C21.5098 28.7539 21.857 28.8235 22.1742 28.9639C22.4913 29.1043 22.7683 29.308 23.0053 29.5769C23.2422 29.8458 23.4284 30.1811 23.5625 30.5835C23.6966 30.9859 23.7637 31.4528 23.7637 31.9844ZM21.1074 34.3756C21.3186 34.3756 21.5198 34.3342 21.7116 34.2514C21.9034 34.1687 22.0745 34.0327 22.2255 33.8447C22.3766 33.6566 22.4957 33.409 22.5809 33.1032C22.6662 32.7973 22.7126 32.425 22.7182 31.985C22.7126 31.5563 22.6681 31.1921 22.5853 30.8925C22.5026 30.5929 22.3885 30.3453 22.2425 30.151C22.0964 29.9567 21.931 29.8169 21.7454 29.7311C21.5599 29.6452 21.3643 29.6026 21.1581 29.6026C20.9469 29.6026 20.7457 29.6421 20.5539 29.7223C20.3621 29.8025 20.191 29.9379 20.0399 30.1291C19.8889 30.3202 19.7698 30.5672 19.6846 30.8706C19.5987 31.1733 19.5529 31.5444 19.5473 31.9844C19.5529 32.4131 19.5974 32.7785 19.6802 33.0812C19.7629 33.384 19.877 33.6309 20.023 33.8227C20.1691 34.0145 20.3345 34.1537 20.5201 34.2427C20.7056 34.3317 20.9018 34.3756 21.1074 34.3756Z" fill="white"/>
<path d="M29.7795 28.8564V35.1719H28.7341L26.2576 30.8189V35.1719H25.2122V28.8564H26.2576L28.7341 33.2095V28.8564H29.7795Z" fill="white"/>
<path d="M13.9982 13.8592V11.352C13.9982 11.0067 14.279 10.7253 14.625 10.7253C14.9716 10.7253 15.2518 10.4445 15.2518 10.0985C15.2518 9.75248 14.9716 9.47168 14.625 9.47168C13.5883 9.47168 12.7446 10.3153 12.7446 11.352V13.8592C12.7446 14.5505 12.1824 15.1128 11.491 15.1128C11.1444 15.1128 10.8643 15.3936 10.8643 15.7395C10.8643 16.0855 11.1444 16.3663 11.491 16.3663C12.1824 16.3663 12.7446 16.9285 12.7446 17.6199V20.127C12.7446 21.1637 13.5883 22.0074 14.625 22.0074C14.9716 22.0074 15.2518 21.7266 15.2518 21.3806C15.2518 21.0346 14.9716 20.7538 14.625 20.7538C14.279 20.7538 13.9982 20.4724 13.9982 20.127V17.6199C13.9982 16.8678 13.6585 16.1996 13.132 15.7395C13.6585 15.2795 13.9982 14.6113 13.9982 13.8592Z" fill="#9777A8"/>
<path d="M19.0128 14.4848C19.5321 14.4848 19.953 14.0639 19.953 13.5447C19.953 13.0254 19.5321 12.6045 19.0128 12.6045C18.4936 12.6045 18.0726 13.0254 18.0726 13.5447C18.0726 14.0639 18.4936 14.4848 19.0128 14.4848Z" fill="#9777A8"/>
<path d="M26.5342 15.1118C25.8428 15.1118 25.2806 14.5495 25.2806 13.8582V11.3511C25.2806 10.3144 24.4369 9.4707 23.4002 9.4707C23.0536 9.4707 22.7734 9.7515 22.7734 10.0975C22.7734 10.4435 23.0536 10.7243 23.4002 10.7243C23.7462 10.7243 24.027 11.0057 24.027 11.3511V13.8582C24.027 14.6103 24.3667 15.2785 24.8932 15.7386C24.3667 16.1986 24.027 16.8668 24.027 17.6189V20.1261C24.027 20.4714 23.7462 20.7528 23.4002 20.7528C23.0536 20.7528 22.7734 21.0336 22.7734 21.3796C22.7734 21.7256 23.0536 22.0064 23.4002 22.0064C24.4369 22.0064 25.2806 21.1628 25.2806 20.1261V17.6189C25.2806 16.9276 25.8428 16.3653 26.5342 16.3653C26.8808 16.3653 27.1609 16.0845 27.1609 15.7386C27.1609 15.3926 26.8808 15.1118 26.5342 15.1118Z" fill="#9777A8"/>
<path d="M19.0128 16.9922C18.6662 16.9922 18.386 17.273 18.386 17.619V19.4993C18.386 19.8453 18.6662 20.1261 19.0128 20.1261C19.3594 20.1261 19.6396 19.8453 19.6396 19.4993V17.619C19.6396 17.273 19.3594 16.9922 19.0128 16.9922Z" fill="#9777A8"/>
</svg>
