<svg width="39" height="39" viewBox="0 0 39 39" fill="none" xmlns="http://www.w3.org/2000/svg">
<path d="M27.6532 2.36328H6.55582L5.04944 19.4986L6.55582 36.6342H27.6531C28.8959 36.6342 29.9127 35.6174 29.9127 34.3746V4.62289C29.9128 3.3801 28.896 2.36328 27.6532 2.36328Z" fill="#F53635"/>
<path d="M34.6184 7.83398L36.1249 11.4577L34.6184 12.9641L33.1121 11.4577L34.6184 7.83398Z" fill="#FFD691"/>
<path d="M36.1249 34.0005V35.5069C36.1249 36.1283 35.6164 36.6367 34.9951 36.6367H34.2419C33.6204 36.6367 33.1121 36.1283 33.1121 35.5069V34.0005L34.6184 32.4941L36.1249 34.0005Z" fill="#F53635"/>
<path d="M36.1249 11.4629H33.1121V33.9981H36.1249V11.4629Z" fill="#FAB43E"/>
<path d="M24.6399 7.63867H11.8279V14.4176H24.6399V7.63867Z" fill="#FDF3C2"/>
<path d="M6.55824 2.36328H3.54541V36.6342H6.55824V2.36328Z" fill="#C40200"/>
<path d="M22.3848 10.459H14.0915C13.7796 10.459 13.5266 10.2061 13.5266 9.89404C13.5266 9.58198 13.7796 9.3291 14.0915 9.3291H22.3847C22.6967 9.3291 22.9496 9.58198 22.9496 9.89404C22.9496 10.2061 22.6968 10.459 22.3848 10.459Z" fill="#F53635"/>
<path d="M22.384 12.7168H14.0907C13.7787 12.7168 13.5258 12.4639 13.5258 12.1518C13.5258 11.8398 13.7787 11.5869 14.0907 11.5869H22.3838C22.6958 11.5869 22.9488 11.8398 22.9488 12.1518C22.9488 12.4639 22.696 12.7168 22.384 12.7168Z" fill="#F53635"/>
</svg>
