<svg viewBox="-24 0 512 512" xmlns="http://www.w3.org/2000/svg"><path d="m55.753906 166.25 15.589844-25.628906 146.207031 88.945312-15.589843 25.628906zm0 0" fill="#cdd2e1"/><path d="m246.722656 229.558594 146.207032-88.960938 15.597656 25.628906-146.210938 88.960938zm0 0" fill="#bec3d2"/><path d="m55.777344 345.738281 146.207031-88.960937 15.59375 25.628906-146.207031 88.960938zm0 0" fill="#cdd2e1"/><path d="m246.699219 282.421875 15.589843-25.628906 146.207032 88.941406-15.589844 25.628906zm0 0" fill="#bec3d2"/><path d="m217.144531 282.183594h30v163.25h-30zm0 0" fill="#cdd2e1"/><path d="m232.144531 282.183594h15v163.25h-15zm0 0" fill="#bec3d2"/><path d="m217.144531 67.371094h30v163.246094h-30zm0 0" fill="#cdd2e1"/><path d="m232.144531 67.371094h15v163.246094h-15zm0 0" fill="#bec3d2"/><path d="m56.058594 115.261719 147.445312-76.15625 13.769532 26.65625-147.445313 76.152343zm0 0" fill="#dce1eb"/><path d="m26.1875 166.011719h30v179.976562h-30zm0 0" fill="#dce1eb"/><path d="m56.066406 396.71875 13.765625-26.652344 147.445313 76.152344-13.765625 26.65625zm0 0" fill="#dce1eb"/><g fill="#bec3d2"><path d="m244.761719 447.421875 151.949219-78.480469 13.769531 26.65625-151.949219 78.480469zm0 0"/><path d="m408.101562 166.011719h30v179.976562h-30zm0 0"/><path d="m248.507812 66.515625 13.765626-26.65625 144.4375 74.601563-13.769532 26.65625zm0 0"/></g><path d="m232.144531 82.371094c-22.710937 0-41.1875-18.476563-41.1875-41.1875 0-22.707032 18.476563-41.183594 41.1875-41.183594 22.707031 0 41.183594 18.476562 41.183594 41.183594 0 22.710937-18.476563 41.1875-41.183594 41.1875zm0 0" fill="#06ccab"/><path d="m232.144531 512c-22.710937 0-41.1875-18.476562-41.1875-41.183594 0-22.710937 18.476563-41.1875 41.1875-41.1875 22.707031 0 41.183594 18.476563 41.183594 41.1875 0 22.707032-18.476563 41.183594-41.183594 41.183594zm0 0" fill="#06ccab"/><path d="m232.144531 82.371094c0-41.1875 0-54.230469 0-82.371094 22.707031 0 41.183594 18.476562 41.183594 41.183594 0 22.710937-18.476563 41.1875-41.183594 41.1875zm0 0" fill="#00bd9d"/><path d="m232.144531 512c0-35.308594 0-53.9375 0-82.371094 22.707031 0 41.183594 18.476563 41.183594 41.1875 0 22.707032-18.476563 41.183594-41.183594 41.183594zm0 0" fill="#00bd9d"/><path d="m41.1875 413.359375c-22.710938 0-41.1875-18.476563-41.1875-41.1875 0-22.707031 18.476562-41.183594 41.1875-41.183594 22.707031 0 41.183594 18.476563 41.183594 41.183594 0 22.710937-18.476563 41.1875-41.183594 41.1875zm0 0" fill="#06ccab"/><path d="m41.1875 181.011719c-22.710938 0-41.1875-18.476563-41.1875-41.183594 0-22.710937 18.476562-41.1875 41.1875-41.1875 22.707031 0 41.183594 18.476563 41.183594 41.1875 0 22.707031-18.476563 41.183594-41.183594 41.183594zm0 0" fill="#06ccab"/><path d="m423.101562 413.359375c-22.710937 0-41.1875-18.476563-41.1875-41.1875 0-22.707031 18.476563-41.183594 41.1875-41.183594 22.707032 0 41.183594 18.476563 41.183594 41.183594 0 22.710937-18.476562 41.1875-41.183594 41.1875zm0 0" fill="#00bd9d"/><path d="m423.101562 181.011719c-22.710937 0-41.1875-18.476563-41.1875-41.183594 0-22.710937 18.476563-41.1875 41.1875-41.1875 22.707032 0 41.183594 18.476563 41.183594 41.1875 0 22.707031-18.476562 41.183594-41.183594 41.183594zm0 0" fill="#00bd9d"/><path d="m340.21875 256c0 59.6875-48.386719 108.078125-108.074219 108.078125-59.691406 0-108.078125-48.390625-108.078125-108.078125s48.386719-108.078125 108.078125-108.078125c59.6875 0 108.074219 48.390625 108.074219 108.078125zm0 0" fill="#4a98f7"/><path d="m268.394531 201.960938h57.363281c-18.6875-32.304688-53.613281-54.039063-93.613281-54.039063l2.933594 2.945313c14.988281 15.042968 26.085937 32.492187 33.316406 51.09375zm0 0" fill="#2864f0"/><path d="m195.890625 201.960938h72.503906c-7.230469-18.601563-18.328125-36.050782-33.320312-51.09375l-2.929688-2.945313-2.933593 2.945313c-14.992188 15.042968-26.089844 32.492187-33.320313 51.09375zm0 0" fill="#4a7aff"/><path d="m195.890625 201.960938c-6.742187 17.34375-10.117187 35.691406-10.121094 54.039062h92.746094c0-18.347656-3.378906-36.695312-10.121094-54.039062zm0 0" fill="#2864f0"/><path d="m195.882812 310.039062h72.523438c6.734375-17.339843 10.109375-35.6875 10.109375-54.039062h-92.746094c0 18.351562 3.375 36.699219 10.113281 54.039062zm0 0" fill="#0053bf"/><path d="m278.515625 256h61.703125c0-19.6875-5.265625-38.140625-14.460938-54.039062h-57.363281c6.742188 17.34375 10.121094 35.691406 10.121094 54.039062zm0 0" fill="#0053bf"/><path d="m234.699219 361.527344-2.554688 2.550781c40 0 74.925781-21.734375 93.613281-54.039063h-57.355468c-7.289063 18.769532-18.519532 36.363282-33.703125 51.488282zm0 0" fill="#1b3b6b"/><path d="m278.515625 256c0 18.351562-3.375 36.699219-10.113281 54.039062h57.355468c9.195313-15.898437 14.460938-34.351562 14.460938-54.039062zm0 0" fill="#27488f"/><path d="m195.890625 201.960938h-57.363281c-9.195313 15.898437-14.460938 34.351562-14.460938 54.039062h61.703125c.003907-18.347656 3.378907-36.695312 10.121094-54.039062zm0 0" fill="#4a7aff"/><path d="m268.402344 310.039062h-72.519532c7.289063 18.769532 18.519532 36.363282 33.703126 51.492188l2.554687 2.546875 2.558594-2.546875c15.183593-15.128906 26.414062-32.722656 33.703125-51.492188zm0 0" fill="#27488f"/><path d="m185.773438 256h-61.703126c0 19.6875 5.265626 38.140625 14.460938 54.039062h57.355469c-6.738281-17.339843-10.113281-35.6875-10.113281-54.039062zm0 0" fill="#2864f0"/><path d="m195.882812 310.039062h-57.355468c18.6875 32.304688 53.613281 54.039063 93.617187 54.039063l-2.558593-2.546875c-15.183594-15.128906-26.410157-32.722656-33.703126-51.492188zm0 0" fill="#0053bf"/></svg>