<svg width="39" height="39" viewBox="0 0 39 39" fill="none" xmlns="http://www.w3.org/2000/svg">
<g clip-path="url(#clip0_7706_61052)">
<path d="M34.2789 1.9502H4.721C3.19059 1.9502 1.94995 3.19084 1.94995 4.72125V34.2791C1.94995 35.8096 3.19059 37.0502 4.721 37.0502H34.2789C35.8093 37.0502 37.0499 35.8096 37.0499 34.2791V4.72125C37.0499 3.19084 35.8093 1.9502 34.2789 1.9502Z" fill="#2196F3"/>
<path d="M37.0506 28.9968V34.2803C37.0506 35.0152 36.7586 35.7201 36.2389 36.2397C35.7193 36.7594 35.0144 37.0514 34.2795 37.0514H25.7077L17.3461 28.6897C19.5552 28.0739 20.6821 26.6622 20.7268 24.4546V22.4548C20.7268 21.1971 21.2332 20.5682 22.2462 20.5682V18.4345C21.2332 18.4345 20.7268 17.7995 20.7268 16.5294V14.652C20.7268 13.499 20.442 12.5676 19.8723 11.8579C19.81 11.7794 19.7453 11.7055 19.6784 11.627L37.0506 28.9968Z" fill="url(#paint0_linear_7706_61052)"/>
<path d="M16.755 27.0246C17.5417 26.7244 17.9512 25.8823 17.9835 24.4983V22.4616C17.9835 21.053 18.5662 20.0654 19.7316 19.4989C18.5662 18.9293 17.9835 17.9402 17.9835 16.5316V14.4902C17.9527 13.1047 17.5432 12.2626 16.755 11.9639L17.3462 10.3105C18.4654 10.6184 19.3074 11.1303 19.8724 11.8462C20.4374 12.562 20.7222 13.4965 20.7268 14.6496V16.5362C20.7268 17.8062 21.2333 18.4413 22.2463 18.4413V20.575C21.2333 20.575 20.7268 21.2039 20.7268 22.4616V24.4614C20.6791 26.6582 19.5522 28.0668 17.3462 28.6872L16.755 27.0246Z" fill="white"/>
</g>
<defs>
<linearGradient id="paint0_linear_7706_61052" x1="17.3461" y1="24.3392" x2="37.0506" y2="24.3392" gradientUnits="userSpaceOnUse">
<stop stop-color="#186EB3"/>
<stop offset="1" stop-color="#186EB3" stop-opacity="0"/>
</linearGradient>
<clipPath id="clip0_7706_61052">
<rect width="35.1" height="35.1" fill="white" transform="translate(1.94995 1.9502)"/>
</clipPath>
</defs>
</svg>
