<svg width="18" height="18" viewBox="0 0 18 18" fill="none" xmlns="http://www.w3.org/2000/svg">
<path fill-rule="evenodd" clip-rule="evenodd" d="M9.90039 0.898438H8.10039V3.59844H9.90039V0.898438ZM8.10039 14.3984V17.0984H9.90039V14.3984H8.10039ZM12.6004 8.99844C12.6004 10.9867 10.9886 12.5984 9.00039 12.5984C7.01217 12.5984 5.40039 10.9867 5.40039 8.99844C5.40039 7.01021 7.01217 5.39844 9.00039 5.39844C10.9886 5.39844 12.6004 7.01021 12.6004 8.99844ZM14.4004 8.09844H17.1004V9.89844H14.4004V8.09844ZM3.60039 8.09844V9.89844H0.900391V8.09844H3.60039ZM15.3638 3.90697L14.091 2.63418L12.1818 4.54337L13.4546 5.81616L15.3638 3.90697ZM5.81785 13.453L4.54506 12.1802L2.63587 14.0894L3.90866 15.3622L5.81785 13.453ZM14.091 15.3622L15.3638 14.0894L13.4546 12.1802L12.1818 13.453L14.091 15.3622ZM4.54506 5.81615L5.81785 4.54336L3.90866 2.63417L2.63587 3.90696L4.54506 5.81615Z" fill="#B8BABD"/>
</svg>
